<svg width="13" height="13" fill="none" xmlns="http://www.w3.org/2000/svg"><path d="M6.066.008A7.045 7.045 0 004.41.335 7.24 7.24 0 003.152.92 6.516 6.516 0 00.085 5.41C.015 5.837 0 6.024 0 6.5c0 .476.016.663.085 1.089a6.513 6.513 0 002.063 3.746 6.458 6.458 0 003.365 1.593c.394.06.561.07 1.005.069a5.56 5.56 0 001.1-.09 6.471 6.471 0 002.57-1.051 6.532 6.532 0 002.532-3.461 6.554 6.554 0 000-3.79 6.544 6.544 0 00-1.939-3A6.49 6.49 0 007.161.029 9.198 9.198 0 006.067.01zm1.56 2.762a.712.712 0 01.476.543.672.672 0 010 .323.725.725 0 01-.488.544.915.915 0 01-.482.002.745.745 0 01.072-1.437.839.839 0 01.422.025zM6.9 4.753c.292.061.52.276.574.542.01.048.013.14.009.229-.006.134-.017.181-.113.495-.116.376-.181.595-.647 2.135l-.229.754c-.117.382-.121.41-.083.474.042.067.085.082.165.06.143-.042.227-.124.68-.672l.267-.326.004.085c.003.047.001.15-.004.23l-.01.146-.149.208a3.435 3.435 0 01-.421.51c-.341.354-.668.523-1.1.568a.53.53 0 01-.258-.014.841.841 0 01-.416-.222c-.21-.21-.246-.426-.136-.79.06-.196.227-.747.382-1.265l.212-.7.211-.7c.06-.198.14-.464.18-.591.085-.279.086-.314.021-.38-.058-.057-.092-.059-.187-.012-.114.058-.198.141-.548.564-.186.222-.34.405-.343.405-.003 0-.005-.098-.005-.217v-.215l.11-.148c.445-.598 1.079-1.06 1.58-1.153a.458.458 0 01.254 0z" fill="#3A3A3A"/></svg>