<svg width="13" height="13" fill="none" xmlns="http://www.w3.org/2000/svg"><path d="M6.178 8.592L5.03 9.739a.623.623 0 01-.875.006c-.068-.068-.136-.13-.205-.198a17.622 17.622 0 01-1.73-2.028 11.056 11.056 0 01-1.215-2.115c-.292-.707-.44-1.383-.44-2.028 0-.422.074-.825.223-1.197.149-.378.384-.725.713-1.036.397-.39.83-.582 1.29-.582.173 0 .347.037.502.111.161.075.304.186.416.347l1.438 2.028c.112.155.193.298.248.434a.98.98 0 01.087.379.842.842 0 01-.13.44 2.11 2.11 0 01-.347.44l-.472.49a.332.332 0 00-.099.248c0 .05.006.093.019.143.018.05.037.087.05.124.111.205.303.471.576.794.28.322.577.651.9.98.061.062.13.124.192.186a.621.621 0 01.006.887zm6.772 2.096c0 .234-.054.465-.155.676a2.558 2.558 0 01-.422.632 2.796 2.796 0 01-1.017.732c-.006 0-.012.006-.018.006-.366.149-.763.23-1.191.23-.633 0-1.309-.15-2.022-.453a10.885 10.885 0 01-2.133-1.228c-.242-.18-.484-.36-.713-.552l2.028-2.028c.173.13.328.23.458.298.031.012.069.03.112.05.05.018.1.024.155.024a.341.341 0 00.254-.105l.472-.465c.155-.155.304-.273.446-.348a.826.826 0 01.44-.13.99.99 0 01.379.08c.136.057.279.137.434.243l2.053 1.457a.94.94 0 01.34.397c.063.155.1.31.1.484z" fill="#fff"/></svg>